<svg width="512" height="512" viewBox="0 0 512 512" fill="none" xmlns="http://www.w3.org/2000/svg">
<g clip-path="url(#clip0_101_16)">
<path d="M1 336C0.999998 283.646 0.999998 231.292 1.4281 178.553C2.23752 176.488 2.86843 174.82 2.95813 173.124C3.4132 164.519 3.4846 155.888 4.14643 147.301C5.24871 133 6.48125 118.701 8.07728 104.448C9.13553 94.9976 10.1067 85.4097 12.5597 76.2707C17.247 58.8076 26.8399 44.0973 40.4327 32.0525C52.3932 21.4542 66.1293 13.8452 81.7786 11.2097C99.2893 8.26061 117.056 6.68216 134.766 5.11416C148.275 3.91804 161.871 3.71488 175.419 2.91856C176.646 2.84644 177.808 1.66583 179 1C230.688 0.999999 282.375 0.999999 334.482 1.42833C336.081 2.23663 337.242 2.87431 338.442 2.9563C349.156 3.68875 359.887 4.18107 370.592 5.02051C385.88 6.21932 401.13 7.98528 416.432 8.88552C430.522 9.71439 443.662 13.36 456.009 20.0169C479.642 32.7575 495.858 52.0628 501.628 78.122C505.874 97.2995 506.975 117.211 508.89 136.853C510.142 149.682 510.308 162.616 511.095 175.494C511.148 176.365 512.339 177.166 513 178C513 230.354 513 282.708 512.572 335.481C511.764 336.912 511.119 337.906 511.047 338.94C510.316 349.486 509.813 360.048 508.981 370.585C507.775 385.871 506.04 401.122 505.106 416.423C504.216 430.996 500.448 444.582 493.326 457.276C480.474 480.182 461.449 496.025 435.946 501.62C416.599 505.864 396.528 506.976 376.722 508.889C363.726 510.144 350.626 510.307 337.582 511.094C336.686 511.148 335.859 512.338 335 513C283.312 513 231.625 513 179.515 512.572C177.414 511.762 175.748 511.128 174.055 511.042C165.12 510.592 156.157 510.538 147.241 509.861C132.947 508.774 118.675 507.377 104.408 505.968C97.536 505.29 90.6139 504.697 83.857 503.35C62.9117 499.175 45.3628 488.866 31.341 472.781C21.1052 461.039 13.6952 447.517 11.1895 432.171C8.32845 414.649 6.69777 396.904 5.11045 379.203C3.92924 366.032 3.71581 352.775 2.91867 339.565C2.84489 338.343 1.66584 337.187 1 336ZM274.462 98.0277C260.847 98.3105 247.045 97.2395 233.647 99.0909C129.1 113.537 68.1113 227.605 113.253 323.344C114.546 326.086 114.979 329.795 114.392 332.773C109.503 357.578 104.247 382.31 99.1776 407.08C97.5582 414.992 100.823 418.017 108.812 416.142C133.258 410.407 157.678 404.564 182.16 398.989C184.651 398.422 187.802 398.695 190.121 399.742C219.946 413.206 250.948 417.504 283.239 412.134C380.879 395.893 440.661 294.345 405.958 201.751C383.429 141.638 338.771 107.602 274.462 98.0277Z" fill="#000080"/>
<path d="M274.911 98.0574C338.772 107.602 383.429 141.638 405.958 201.751C440.661 294.345 380.88 395.893 283.239 412.134C250.948 417.504 219.946 413.206 190.121 399.742C187.802 398.695 184.651 398.422 182.16 398.989C157.678 404.564 133.258 410.407 108.812 416.142C100.823 418.017 97.5583 414.992 99.1776 407.08C104.247 382.31 109.503 357.578 114.392 332.773C114.979 329.795 114.546 326.086 113.253 323.344C68.1114 227.605 129.1 113.537 233.647 99.0909C247.045 97.2395 260.847 98.3105 274.911 98.0574ZM186.167 153.64C151.502 178.852 133.497 212.793 132.836 255.742C132.489 278.278 138.944 299.027 149.498 318.738C150.772 321.117 151.201 324.468 150.752 327.156C149.273 336.008 147.182 344.757 145.381 353.557C144.099 359.822 142.906 366.104 141.567 372.918C156.062 369.482 169.709 366.481 183.21 362.928C188.395 361.563 192.656 362.121 197.376 364.616C222.582 377.936 249.234 382.592 277.593 378.159C344.002 367.777 391.057 302.497 379.74 236.013C364.35 145.612 262.697 101.997 186.167 153.64Z" fill="#FDFEFD"/>
<path d="M186.457 153.423C262.697 101.997 364.35 145.612 379.739 236.013C391.057 302.497 344.002 367.777 277.593 378.159C249.234 382.592 222.582 377.936 197.376 364.616C192.656 362.121 188.395 361.563 183.21 362.928C169.709 366.481 156.062 369.482 141.567 372.918C142.906 366.104 144.099 359.822 145.381 353.557C147.182 344.757 149.273 336.008 150.752 327.156C151.201 324.468 150.772 321.117 149.498 318.738C138.944 299.027 132.488 278.278 132.835 255.742C133.497 212.793 151.502 178.852 186.457 153.423ZM291.42 284.824C289.656 286.594 287.899 288.37 286.129 290.132C280.144 296.092 276.003 296.91 268.758 292.825C263.991 290.137 259.35 287.119 255.038 283.755C242.412 273.906 230.292 263.468 220.866 250.35C216.445 244.197 216.677 239.992 221.187 233.987C223.086 231.459 225.733 229.219 226.765 226.384C227.984 223.035 229.151 218.691 228.018 215.64C224.209 205.379 219.56 195.41 214.851 185.51C211.998 179.513 204.799 176.911 199.664 180.625C187.644 189.319 177.894 199.901 177.096 215.881C176.475 228.324 179.443 240.145 185.461 250.887C203.905 283.814 230.621 308.224 264.396 324.696C272.024 328.416 280.694 330.407 289.108 332.029C311.143 336.276 327.717 327.857 339.445 309.008C344.782 300.431 342.036 292.53 332.245 289.639C323.003 286.911 313.672 284.481 304.437 281.726C299.699 280.312 295.591 280.958 291.42 284.824Z" fill="#000080"/>
<path d="M291.678 284.563C295.591 280.958 299.699 280.312 304.437 281.726C313.672 284.481 323.003 286.911 332.245 289.639C342.036 292.53 344.782 300.431 339.445 309.008C327.717 327.857 311.143 336.276 289.108 332.029C280.694 330.407 272.024 328.416 264.396 324.696C230.621 308.224 203.905 283.814 185.461 250.887C179.443 240.145 176.475 228.324 177.096 215.881C177.894 199.901 187.644 189.319 199.664 180.625C204.799 176.911 211.998 179.513 214.851 185.51C219.56 195.41 224.209 205.379 228.018 215.64C229.151 218.69 227.984 223.035 226.765 226.384C225.733 229.219 223.086 231.459 221.187 233.987C216.677 239.992 216.445 244.197 220.866 250.35C230.292 263.468 242.412 273.906 255.038 283.755C259.35 287.119 263.991 290.137 268.758 292.825C276.003 296.91 280.144 296.092 286.129 290.132C287.899 288.37 289.656 286.594 291.678 284.563Z" fill="#FDFEFD"/>
</g>
<defs>
<clipPath id="clip0_101_16">
<rect width="512" height="512" fill="white"/>
</clipPath>
</defs>
</svg>
